<svg xmlns="http://www.w3.org/2000/svg" xmlns:xlink="http://www.w3.org/1999/xlink" width="500" zoomAndPan="magnify" viewBox="0 0 375 374.999991" height="500" preserveAspectRatio="xMidYMid meet" version="1.0"><defs><g/><clipPath id="6e6280ae9e"><path d="M 213.832031 76 L 298.703125 76 L 298.703125 103.402344 L 213.832031 103.402344 Z M 213.832031 76 " clip-rule="nonzero"/></clipPath><clipPath id="25a80b806d"><path d="M 59.601562 76 L 144.472656 76 L 144.472656 103.402344 L 59.601562 103.402344 Z M 59.601562 76 " clip-rule="nonzero"/></clipPath><clipPath id="d16e6d859d"><path d="M 169.203125 140.351562 L 205.785156 140.351562 L 205.785156 225.21875 L 169.203125 225.21875 Z M 169.203125 140.351562 " clip-rule="nonzero"/></clipPath><clipPath id="faea46191f"><path d="M 150.355469 216.1875 L 224.644531 216.1875 L 224.644531 240.175781 L 150.355469 240.175781 Z M 150.355469 216.1875 " clip-rule="nonzero"/></clipPath><clipPath id="1c9d77e943"><path d="M 167.078125 305.617188 L 323.714844 305.617188 L 323.714844 339.976562 L 167.078125 339.976562 Z M 167.078125 305.617188 " clip-rule="nonzero"/></clipPath><clipPath id="de22d11d53"><path d="M 193.765625 305.617188 L 317.4375 305.617188 C 319.589844 305.617188 321.574219 306.769531 322.640625 308.636719 C 323.703125 310.507812 323.683594 312.800781 322.589844 314.652344 L 312.941406 330.941406 C 309.625 336.542969 303.601562 339.976562 297.089844 339.976562 L 173.417969 339.976562 C 171.269531 339.976562 169.285156 338.824219 168.21875 336.957031 C 167.15625 335.089844 167.171875 332.792969 168.269531 330.941406 L 177.917969 314.652344 C 181.234375 309.050781 187.257812 305.617188 193.765625 305.617188 Z M 193.765625 305.617188 " clip-rule="nonzero"/></clipPath></defs><rect x="-37.5" width="450" fill="#ffffff" y="-37.499999" height="449.999989" fill-opacity="1"/><rect x="-37.5" width="450" fill="#ffc107" y="-37.499999" height="449.999989" fill-opacity="1"/><g fill="#8c00ed" fill-opacity="1"><g transform="translate(78.55275, 0.00127602)"><g><path d="M 0 26.046875 L 205.4375 26.046875 L 205.4375 70.3125 C 205.4375 148.632812 171.488281 187.796875 103.59375 187.796875 C 70.414062 187.796875 44.851562 178.296875 26.90625 159.296875 C 8.96875 140.296875 0 112.46875 0 75.8125 Z M 7.8125 35.015625 L 7.8125 74.9375 C 7.8125 144 39.738281 178.53125 103.59375 178.53125 C 135.226562 178.53125 158.804688 169.800781 174.328125 152.34375 C 189.859375 134.882812 197.625 108.023438 197.625 71.765625 L 197.625 35.015625 Z M 7.8125 35.015625 "/></g></g></g><g clip-path="url(#6e6280ae9e)"><path fill="#ffc107" d="M 213.832031 76 L 298.726562 76 L 298.726562 103.402344 L 213.832031 103.402344 Z M 213.832031 76 " fill-opacity="1" fill-rule="nonzero"/></g><g clip-path="url(#25a80b806d)"><path fill="#ffc107" d="M 59.601562 76 L 144.496094 76 L 144.496094 103.402344 L 59.601562 103.402344 Z M 59.601562 76 " fill-opacity="1" fill-rule="nonzero"/></g><g clip-path="url(#d16e6d859d)"><path fill="#ffc107" d="M 205.785156 140.351562 L 205.785156 225.226562 L 169.203125 225.226562 L 169.203125 140.351562 Z M 205.785156 140.351562 " fill-opacity="1" fill-rule="nonzero"/></g><g fill="#0030ff" fill-opacity="1"><g transform="translate(106.567048, 296.164539)"><g><path d="M 153.28125 -213.8125 L 152.671875 -205.984375 L 83.109375 -205.984375 L 83.109375 0 L 73.78125 0 L 73.78125 -205.984375 L 2.703125 -205.984375 L 2.703125 -213.8125 Z M 153.28125 -213.8125 "/></g></g></g><g clip-path="url(#faea46191f)"><path fill="#ffc107" d="M 150.355469 216.1875 L 224.664062 216.1875 L 224.664062 240.175781 L 150.355469 240.175781 Z M 150.355469 216.1875 " fill-opacity="1" fill-rule="nonzero"/></g><g clip-path="url(#1c9d77e943)"><g clip-path="url(#de22d11d53)"><path fill="#000000" d="M 162.917969 305.617188 L 327.875 305.617188 L 327.875 339.976562 L 162.917969 339.976562 Z M 162.917969 305.617188 " fill-opacity="1" fill-rule="nonzero"/></g></g><g fill="#000000" fill-opacity="1"><g transform="translate(68.201748, 335.672741)"><g><path d="M 2.296875 -22.890625 L 12.140625 -22.890625 C 15.734375 -22.890625 18.65625 -21.832031 20.90625 -19.71875 C 23.164062 -17.601562 24.296875 -14.847656 24.296875 -11.453125 C 24.296875 -8.066406 23.148438 -5.3125 20.859375 -3.1875 C 18.578125 -1.0625 15.59375 0 11.90625 0 L 2.296875 0 Z M 8.109375 -18.25 L 8.109375 -4.640625 L 12.265625 -4.640625 C 14.054688 -4.640625 15.519531 -5.265625 16.65625 -6.515625 C 17.800781 -7.773438 18.375 -9.40625 18.375 -11.40625 C 18.375 -13.414062 17.773438 -15.054688 16.578125 -16.328125 C 15.378906 -17.609375 13.851562 -18.25 12 -18.25 Z M 8.109375 -18.25 "/></g></g></g><g fill="#000000" fill-opacity="1"><g transform="translate(91.419628, 335.672741)"><g><path d="M 19.78125 -18.21875 L 12.890625 -18.21875 L 12.890625 0 L 7.0625 0 L 7.0625 -18.21875 L 0.234375 -18.21875 L 0.234375 -22.921875 L 19.78125 -22.921875 Z M 19.78125 -18.21875 "/></g></g></g><g fill="#000000" fill-opacity="1"><g transform="translate(109.536078, 335.672741)"><g><path d="M 9.96875 -17.828125 C 13.019531 -17.828125 15.3125 -16.890625 16.84375 -15.015625 C 18.382812 -13.140625 19.0625 -10.566406 18.875 -7.296875 L 6.46875 -7.296875 C 6.757812 -6.242188 7.265625 -5.429688 7.984375 -4.859375 C 8.703125 -4.296875 9.582031 -4.015625 10.625 -4.015625 C 12.238281 -4.015625 13.644531 -4.617188 14.84375 -5.828125 L 17.828125 -2.90625 C 15.929688 -0.832031 13.367188 0.203125 10.140625 0.203125 C 7.285156 0.203125 5.007812 -0.613281 3.3125 -2.25 C 1.625 -3.882812 0.78125 -6.054688 0.78125 -8.765625 C 0.78125 -11.492188 1.625 -13.6875 3.3125 -15.34375 C 5.007812 -17 7.226562 -17.828125 9.96875 -17.828125 Z M 6.375 -10.328125 L 13.4375 -10.328125 C 13.4375 -11.398438 13.125 -12.265625 12.5 -12.921875 C 11.882812 -13.578125 11.066406 -13.90625 10.046875 -13.90625 C 9.078125 -13.90625 8.265625 -13.582031 7.609375 -12.9375 C 6.960938 -12.289062 6.550781 -11.421875 6.375 -10.328125 Z M 6.375 -10.328125 "/></g></g></g><g fill="#000000" fill-opacity="1"><g transform="translate(127.358213, 335.672741)"><g><path d="M 9.9375 -17.828125 C 11.6875 -17.828125 13.238281 -17.484375 14.59375 -16.796875 C 15.957031 -16.109375 17.023438 -15.128906 17.796875 -13.859375 L 13.734375 -11.40625 C 12.859375 -12.632812 11.671875 -13.25 10.171875 -13.25 C 9.078125 -13.25 8.1875 -12.835938 7.5 -12.015625 C 6.8125 -11.203125 6.46875 -10.128906 6.46875 -8.796875 C 6.46875 -7.441406 6.804688 -6.351562 7.484375 -5.53125 C 8.160156 -4.71875 9.054688 -4.3125 10.171875 -4.3125 C 11.828125 -4.3125 13.023438 -4.976562 13.765625 -6.3125 L 17.890625 -3.890625 C 17.171875 -2.578125 16.117188 -1.566406 14.734375 -0.859375 C 13.347656 -0.148438 11.726562 0.203125 9.875 0.203125 C 7.144531 0.203125 4.945312 -0.617188 3.28125 -2.265625 C 1.613281 -3.910156 0.78125 -6.078125 0.78125 -8.765625 C 0.78125 -11.460938 1.625 -13.644531 3.3125 -15.3125 C 5.007812 -16.988281 7.21875 -17.828125 9.9375 -17.828125 Z M 9.9375 -17.828125 "/></g></g></g><g fill="#000000" fill-opacity="1"><g transform="translate(143.872281, 335.672741)"><g><path d="M 14 -17.890625 C 15.9375 -17.890625 17.492188 -17.269531 18.671875 -16.03125 C 19.847656 -14.800781 20.4375 -13.164062 20.4375 -11.125 L 20.4375 0 L 14.78125 0 L 14.78125 -9.546875 C 14.78125 -10.578125 14.5 -11.390625 13.9375 -11.984375 C 13.382812 -12.585938 12.628906 -12.890625 11.671875 -12.890625 C 10.585938 -12.890625 9.71875 -12.492188 9.0625 -11.703125 C 8.40625 -10.921875 8.078125 -9.921875 8.078125 -8.703125 L 8.078125 0 L 2.421875 0 L 2.421875 -24.265625 L 8.078125 -24.265625 L 8.078125 -14.71875 C 9.316406 -16.789062 11.289062 -17.847656 14 -17.890625 Z M 14 -17.890625 "/></g></g></g><g fill="#ffffff" fill-opacity="1"><g transform="translate(180.512059, 334.189927)"><g><path d="M 11.515625 -20.4375 C 13.023438 -20.4375 14.503906 -20.125 15.953125 -19.5 C 17.410156 -18.882812 18.648438 -18.054688 19.671875 -17.015625 L 16.703125 -13.484375 C 16.046875 -14.296875 15.257812 -14.9375 14.34375 -15.40625 C 13.425781 -15.882812 12.515625 -16.125 11.609375 -16.125 C 10.003906 -16.125 8.660156 -15.554688 7.578125 -14.421875 C 6.503906 -13.296875 5.96875 -11.90625 5.96875 -10.25 C 5.96875 -8.550781 6.503906 -7.128906 7.578125 -5.984375 C 8.660156 -4.847656 10.003906 -4.28125 11.609375 -4.28125 C 12.453125 -4.28125 13.332031 -4.492188 14.25 -4.921875 C 15.164062 -5.347656 15.984375 -5.925781 16.703125 -6.65625 L 19.703125 -3.46875 C 18.609375 -2.351562 17.3125 -1.457031 15.8125 -0.78125 C 14.320312 -0.101562 12.832031 0.234375 11.34375 0.234375 C 8.289062 0.234375 5.75 -0.757812 3.71875 -2.75 C 1.695312 -4.738281 0.6875 -7.21875 0.6875 -10.1875 C 0.6875 -13.101562 1.71875 -15.539062 3.78125 -17.5 C 5.851562 -19.457031 8.429688 -20.4375 11.515625 -20.4375 Z M 11.515625 -20.4375 "/></g></g></g><g fill="#ffffff" fill-opacity="1"><g transform="translate(198.88627, 334.189927)"><g><path d="M 7 -15.59375 L 7 -12.96875 C 8.101562 -14.832031 9.789062 -15.785156 12.0625 -15.828125 L 12.0625 -11.3125 C 10.632812 -11.445312 9.46875 -11.207031 8.5625 -10.59375 C 7.65625 -9.988281 7.132812 -9.128906 7 -8.015625 L 7 0 L 2 0 L 2 -15.59375 Z M 7 -15.59375 "/></g></g></g><g fill="#ffffff" fill-opacity="1"><g transform="translate(209.592436, 334.189927)"><g><path d="M 8.828125 -15.765625 C 11.523438 -15.765625 13.550781 -14.9375 14.90625 -13.28125 C 16.269531 -11.625 16.867188 -9.347656 16.703125 -6.453125 L 5.734375 -6.453125 C 5.984375 -5.523438 6.425781 -4.8125 7.0625 -4.3125 C 7.695312 -3.8125 8.476562 -3.5625 9.40625 -3.5625 C 10.832031 -3.5625 12.078125 -4.09375 13.140625 -5.15625 L 15.765625 -2.578125 C 14.085938 -0.742188 11.820312 0.171875 8.96875 0.171875 C 6.445312 0.171875 4.4375 -0.550781 2.9375 -2 C 1.4375 -3.445312 0.6875 -5.363281 0.6875 -7.75 C 0.6875 -10.164062 1.4375 -12.101562 2.9375 -13.5625 C 4.4375 -15.03125 6.398438 -15.765625 8.828125 -15.765625 Z M 5.640625 -9.140625 L 11.890625 -9.140625 C 11.890625 -10.085938 11.613281 -10.847656 11.0625 -11.421875 C 10.519531 -12.003906 9.796875 -12.296875 8.890625 -12.296875 C 8.035156 -12.296875 7.316406 -12.007812 6.734375 -11.4375 C 6.160156 -10.875 5.796875 -10.109375 5.640625 -9.140625 Z M 5.640625 -9.140625 "/></g></g></g><g fill="#ffffff" fill-opacity="1"><g transform="translate(225.362408, 334.189927)"><g><path d="M 9 -15.828125 C 11.144531 -15.828125 12.804688 -15.328125 13.984375 -14.328125 C 15.171875 -13.335938 15.773438 -11.957031 15.796875 -10.1875 L 15.796875 0 L 10.90625 0 L 10.90625 -1.796875 C 9.882812 -0.441406 8.296875 0.234375 6.140625 0.234375 C 4.492188 0.234375 3.1875 -0.21875 2.21875 -1.125 C 1.257812 -2.03125 0.78125 -3.207031 0.78125 -4.65625 C 0.78125 -6.144531 1.296875 -7.296875 2.328125 -8.109375 C 3.359375 -8.929688 4.835938 -9.351562 6.765625 -9.375 L 10.875 -9.375 L 10.875 -9.609375 C 10.875 -10.378906 10.617188 -10.976562 10.109375 -11.40625 C 9.597656 -11.84375 8.84375 -12.0625 7.84375 -12.0625 C 6.4375 -12.0625 4.882812 -11.628906 3.1875 -10.765625 L 1.765625 -14.0625 C 4.296875 -15.238281 6.707031 -15.828125 9 -15.828125 Z M 7.671875 -3.15625 C 8.460938 -3.15625 9.15625 -3.351562 9.75 -3.75 C 10.351562 -4.144531 10.726562 -4.660156 10.875 -5.296875 L 10.875 -6.6875 L 7.71875 -6.6875 C 6.21875 -6.6875 5.46875 -6.125 5.46875 -5 C 5.46875 -4.425781 5.660156 -3.972656 6.046875 -3.640625 C 6.429688 -3.316406 6.972656 -3.15625 7.671875 -3.15625 Z M 7.671875 -3.15625 "/></g></g></g><g fill="#ffffff" fill-opacity="1"><g transform="translate(241.074505, 334.189927)"><g><path d="M 11.078125 -4.3125 L 12.0625 -0.84375 C 10.851562 -0.125 9.46875 0.234375 7.90625 0.234375 C 6.351562 0.234375 5.097656 -0.191406 4.140625 -1.046875 C 3.191406 -1.910156 2.71875 -3.132812 2.71875 -4.71875 L 2.71875 -11.609375 L 0.546875 -11.609375 L 0.546875 -14.875 L 2.71875 -14.875 L 2.71875 -19.21875 L 7.703125 -19.21875 L 7.703125 -14.90625 L 11.78125 -14.90625 L 11.78125 -11.609375 L 7.703125 -11.609375 L 7.703125 -5.5 C 7.703125 -4.894531 7.820312 -4.453125 8.0625 -4.171875 C 8.300781 -3.898438 8.660156 -3.773438 9.140625 -3.796875 C 9.609375 -3.796875 10.253906 -3.96875 11.078125 -4.3125 Z M 11.078125 -4.3125 "/></g></g></g><g fill="#ffffff" fill-opacity="1"><g transform="translate(252.012156, 334.189927)"><g><path d="M 2.609375 -21.96875 C 3.109375 -22.46875 3.742188 -22.71875 4.515625 -22.71875 C 5.285156 -22.71875 5.914062 -22.46875 6.40625 -21.96875 C 6.894531 -21.476562 7.140625 -20.847656 7.140625 -20.078125 C 7.140625 -19.304688 6.894531 -18.671875 6.40625 -18.171875 C 5.914062 -17.671875 5.285156 -17.421875 4.515625 -17.421875 C 3.742188 -17.421875 3.109375 -17.671875 2.609375 -18.171875 C 2.117188 -18.671875 1.875 -19.304688 1.875 -20.078125 C 1.875 -20.847656 2.117188 -21.476562 2.609375 -21.96875 Z M 6.96875 0 L 2 0 L 2 -15.59375 L 6.96875 -15.59375 Z M 6.96875 0 "/></g></g></g><g fill="#ffffff" fill-opacity="1"><g transform="translate(259.361747, 334.189927)"><g><path d="M 9.234375 -15.765625 C 11.773438 -15.765625 13.828125 -15.035156 15.390625 -13.578125 C 16.953125 -12.128906 17.734375 -10.207031 17.734375 -7.8125 C 17.734375 -5.414062 16.953125 -3.484375 15.390625 -2.015625 C 13.828125 -0.554688 11.773438 0.171875 9.234375 0.171875 C 6.660156 0.171875 4.59375 -0.554688 3.03125 -2.015625 C 1.46875 -3.484375 0.6875 -5.414062 0.6875 -7.8125 C 0.6875 -10.207031 1.46875 -12.128906 3.03125 -13.578125 C 4.59375 -15.035156 6.660156 -15.765625 9.234375 -15.765625 Z M 9.234375 -11.8125 C 8.191406 -11.8125 7.347656 -11.429688 6.703125 -10.671875 C 6.054688 -9.921875 5.734375 -8.945312 5.734375 -7.75 C 5.734375 -6.539062 6.054688 -5.5625 6.703125 -4.8125 C 7.347656 -4.070312 8.191406 -3.703125 9.234375 -3.703125 C 10.253906 -3.703125 11.085938 -4.070312 11.734375 -4.8125 C 12.378906 -5.5625 12.703125 -6.539062 12.703125 -7.75 C 12.703125 -8.945312 12.378906 -9.921875 11.734375 -10.671875 C 11.085938 -11.429688 10.253906 -11.8125 9.234375 -11.8125 Z M 9.234375 -11.8125 "/></g></g></g><g fill="#ffffff" fill-opacity="1"><g transform="translate(276.144477, 334.189927)"><g><path d="M 12.21875 -15.828125 C 13.925781 -15.828125 15.300781 -15.28125 16.34375 -14.1875 C 17.382812 -13.101562 17.90625 -11.65625 17.90625 -9.84375 L 17.90625 0 L 12.9375 0 L 12.9375 -8.453125 C 12.9375 -9.359375 12.6875 -10.078125 12.1875 -10.609375 C 11.695312 -11.140625 11.03125 -11.40625 10.1875 -11.40625 C 9.300781 -11.40625 8.570312 -11.113281 8 -10.53125 C 7.425781 -9.957031 7.09375 -9.195312 7 -8.25 L 7 0 L 2 0 L 2 -15.59375 L 7 -15.59375 L 7 -13.046875 C 8.101562 -14.859375 9.84375 -15.785156 12.21875 -15.828125 Z M 12.21875 -15.828125 "/></g></g></g><g fill="#ffffff" fill-opacity="1"><g transform="translate(293.968907, 334.189927)"><g><path d="M 7.578125 -15.828125 C 9.878906 -15.828125 12.019531 -15.238281 14 -14.0625 L 12.296875 -10.828125 C 10.367188 -11.867188 8.726562 -12.390625 7.375 -12.390625 C 6.351562 -12.390625 5.84375 -12.03125 5.84375 -11.3125 C 5.84375 -10.925781 6.125 -10.601562 6.6875 -10.34375 C 7.25 -10.082031 7.929688 -9.84375 8.734375 -9.625 C 9.546875 -9.414062 10.351562 -9.148438 11.15625 -8.828125 C 11.957031 -8.515625 12.632812 -8.007812 13.1875 -7.3125 C 13.75 -6.625 14.03125 -5.78125 14.03125 -4.78125 C 14.03125 -3.21875 13.421875 -1.992188 12.203125 -1.109375 C 10.992188 -0.234375 9.414062 0.203125 7.46875 0.203125 C 4.707031 0.203125 2.375 -0.53125 0.46875 -2 L 2.046875 -5.1875 C 3.878906 -3.882812 5.722656 -3.234375 7.578125 -3.234375 C 8.710938 -3.234375 9.28125 -3.59375 9.28125 -4.3125 C 9.28125 -4.71875 9.003906 -5.054688 8.453125 -5.328125 C 7.910156 -5.597656 7.242188 -5.835938 6.453125 -6.046875 C 5.660156 -6.253906 4.867188 -6.519531 4.078125 -6.84375 C 3.285156 -7.164062 2.613281 -7.660156 2.0625 -8.328125 C 1.519531 -9.003906 1.25 -9.851562 1.25 -10.875 C 1.25 -12.4375 1.835938 -13.648438 3.015625 -14.515625 C 4.191406 -15.390625 5.710938 -15.828125 7.578125 -15.828125 Z M 7.578125 -15.828125 "/></g></g></g></svg>