<svg xmlns="http://www.w3.org/2000/svg" xmlns:xlink="http://www.w3.org/1999/xlink" width="700" zoomAndPan="magnify" viewBox="0 0 525 525.000007" height="700" preserveAspectRatio="xMidYMid meet" version="1.0"><defs><clipPath id="d3b969a7ae"><path d="M 0.5 0 L 524.5 0 L 524.5 524 L 0.5 524 Z M 0.5 0 " clip-rule="nonzero"/></clipPath></defs><g clip-path="url(#d3b969a7ae)"><path fill="#ffe6e2" d="M 426.25 524 L 98.75 524 C 44.484375 524 0.5 480.019531 0.5 425.75 L 0.5 98.25 C 0.5 43.984375 44.484375 0 98.75 0 L 426.25 0 C 480.515625 0 524.5 43.984375 524.5 98.25 L 524.5 425.75 C 524.5 480.019531 480.515625 524 426.25 524 Z M 426.25 524 " fill-opacity="1" fill-rule="nonzero"/></g><path fill="#fc573b" d="M 147.875 360.25 L 164.25 360.25 L 164.25 211.648438 L 262.5 282.207031 L 360.75 211.648438 L 360.75 360.25 L 377.125 360.25 C 386.410156 360.25 393.5 353.160156 393.5 343.875 L 393.5 180.125 C 393.5 175.492188 391.75 171.398438 388.800781 168.464844 C 385.871094 165.519531 381.777344 163.75 377.125 163.75 L 371.671875 163.75 L 262.5 242.890625 L 153.328125 163.75 L 147.875 163.75 C 143.242188 163.75 139.148438 165.503906 136.199219 168.464844 C 133.269531 171.398438 131.5 175.492188 131.5 180.125 L 131.5 343.875 C 131.5 353.160156 138.574219 360.25 147.875 360.25 Z M 147.875 360.25 " fill-opacity="1" fill-rule="nonzero"/></svg>