<svg xmlns="http://www.w3.org/2000/svg" xmlns:xlink="http://www.w3.org/1999/xlink" width="700" zoomAndPan="magnify" viewBox="0 0 525 525.000007" height="700" preserveAspectRatio="xMidYMid meet" version="1.0"><defs><g/></defs><g fill="#ffffff" fill-opacity="1"><g transform="translate(-14.81952, 355.971897)"><g><path d="M 212.65625 0 L 23.6875 0 L 23.6875 -169.890625 L 212.65625 -169.890625 L 212.65625 -143 L 50.703125 -143 L 50.703125 -98.453125 L 193.453125 -98.453125 L 193.453125 -71.4375 L 50.703125 -71.4375 L 50.703125 -27.015625 L 212.65625 -27.015625 Z M 212.65625 0 "/></g></g></g><g fill="#ffffff" fill-opacity="1"><g transform="translate(210.5002, 245.050666)"><g><path d="M 5.9375 -59.375 L 28.84375 -59.375 C 32.96875 -59.375 36.695312 -58.695312 40.03125 -57.34375 C 43.375 -55.988281 46.234375 -54.035156 48.609375 -51.484375 C 50.984375 -48.941406 52.804688 -45.832031 54.078125 -42.15625 C 55.347656 -38.476562 55.984375 -34.320312 55.984375 -29.6875 C 55.984375 -25 55.347656 -20.816406 54.078125 -17.140625 C 52.804688 -13.460938 50.984375 -10.347656 48.609375 -7.796875 C 46.234375 -5.253906 43.375 -3.316406 40.03125 -1.984375 C 36.695312 -0.660156 32.96875 0 28.84375 0 L 5.9375 0 Z M 28.421875 -11.453125 C 30.453125 -11.453125 32.359375 -11.816406 34.140625 -12.546875 C 35.921875 -13.285156 37.488281 -14.414062 38.84375 -15.9375 C 40.207031 -17.46875 41.285156 -19.378906 42.078125 -21.671875 C 42.867188 -23.960938 43.265625 -26.632812 43.265625 -29.6875 C 43.265625 -32.738281 42.867188 -35.410156 42.078125 -37.703125 C 41.285156 -39.992188 40.207031 -41.898438 38.84375 -43.421875 C 37.488281 -44.953125 35.921875 -46.082031 34.140625 -46.8125 C 32.359375 -47.550781 30.453125 -47.921875 28.421875 -47.921875 L 18.65625 -47.921875 L 18.65625 -11.453125 Z M 28.421875 -11.453125 "/></g></g></g><g fill="#ffffff" fill-opacity="1"><g transform="translate(270.690159, 245.050666)"><g><path d="M 19.09375 -47.921875 L 1.265625 -47.921875 L 1.265625 -59.375 L 49.625 -59.375 L 49.625 -47.921875 L 31.8125 -47.921875 L 31.8125 0 L 19.09375 0 Z M 19.09375 -47.921875 "/></g></g></g><g fill="#ffffff" fill-opacity="1"><g transform="translate(322.40273, 245.050666)"><g><path d="M 25.03125 0.84375 C 21.632812 0.84375 18.578125 0.320312 15.859375 -0.71875 C 13.148438 -1.769531 10.832031 -3.285156 8.90625 -5.265625 C 6.976562 -7.242188 5.503906 -9.671875 4.484375 -12.546875 C 3.472656 -15.429688 2.96875 -18.742188 2.96875 -22.484375 C 2.96875 -26.210938 3.472656 -29.519531 4.484375 -32.40625 C 5.503906 -35.289062 6.976562 -37.722656 8.90625 -39.703125 C 10.832031 -41.679688 13.148438 -43.191406 15.859375 -44.234375 C 18.578125 -45.285156 21.632812 -45.8125 25.03125 -45.8125 C 28.300781 -45.8125 31.265625 -45.257812 33.921875 -44.15625 C 36.585938 -43.050781 38.867188 -41.492188 40.765625 -39.484375 C 42.660156 -37.472656 44.113281 -35.097656 45.125 -32.359375 C 46.144531 -29.617188 46.65625 -26.609375 46.65625 -23.328125 C 46.65625 -22.703125 46.625 -22.109375 46.5625 -21.546875 C 46.507812 -20.984375 46.457031 -20.472656 46.40625 -20.015625 C 46.34375 -19.503906 46.285156 -19.050781 46.234375 -18.65625 L 15.265625 -18.65625 C 15.722656 -16.113281 16.710938 -13.992188 18.234375 -12.296875 C 19.765625 -10.597656 22.03125 -9.75 25.03125 -9.75 C 27.34375 -9.75 29.050781 -10.128906 30.15625 -10.890625 C 31.257812 -11.660156 32.234375 -12.695312 33.078125 -14 L 45.8125 -14 C 45.300781 -12.070312 44.519531 -10.21875 43.46875 -8.4375 C 42.425781 -6.65625 41.070312 -5.070312 39.40625 -3.6875 C 37.738281 -2.300781 35.71875 -1.195312 33.34375 -0.375 C 30.96875 0.4375 28.195312 0.84375 25.03125 0.84375 Z M 34.359375 -27.5625 C 34.128906 -28.53125 33.773438 -29.460938 33.296875 -30.359375 C 32.816406 -31.265625 32.191406 -32.085938 31.421875 -32.828125 C 30.660156 -33.566406 29.742188 -34.144531 28.671875 -34.5625 C 27.597656 -34.988281 26.382812 -35.203125 25.03125 -35.203125 C 22.257812 -35.203125 20.09375 -34.46875 18.53125 -33 C 16.976562 -31.53125 15.890625 -29.71875 15.265625 -27.5625 Z M 34.359375 -27.5625 "/></g></g></g><g fill="#ffffff" fill-opacity="1"><g transform="translate(372.843702, 245.050666)"><g><path d="M 25.03125 0.84375 C 21.632812 0.84375 18.578125 0.320312 15.859375 -0.71875 C 13.148438 -1.769531 10.832031 -3.285156 8.90625 -5.265625 C 6.976562 -7.242188 5.503906 -9.671875 4.484375 -12.546875 C 3.472656 -15.429688 2.96875 -18.742188 2.96875 -22.484375 C 2.96875 -26.210938 3.472656 -29.519531 4.484375 -32.40625 C 5.503906 -35.289062 6.976562 -37.722656 8.90625 -39.703125 C 10.832031 -41.679688 13.148438 -43.191406 15.859375 -44.234375 C 18.578125 -45.285156 21.632812 -45.8125 25.03125 -45.8125 C 28.195312 -45.8125 30.96875 -45.367188 33.34375 -44.484375 C 35.71875 -43.609375 37.738281 -42.421875 39.40625 -40.921875 C 41.070312 -39.429688 42.425781 -37.707031 43.46875 -35.75 C 44.519531 -33.800781 45.300781 -31.78125 45.8125 -29.6875 L 33.9375 -29.6875 C 33.082031 -31.382812 31.976562 -32.726562 30.625 -33.71875 C 29.269531 -34.707031 27.40625 -35.203125 25.03125 -35.203125 C 22.03125 -35.203125 19.582031 -34.140625 17.6875 -32.015625 C 15.789062 -29.898438 14.84375 -26.722656 14.84375 -22.484375 C 14.84375 -18.242188 15.789062 -15.0625 17.6875 -12.9375 C 19.582031 -10.8125 22.03125 -9.75 25.03125 -9.75 C 27.40625 -9.75 29.269531 -10.242188 30.625 -11.234375 C 31.976562 -12.222656 33.082031 -13.566406 33.9375 -15.265625 L 45.8125 -15.265625 C 45.300781 -13.117188 44.519531 -11.082031 43.46875 -9.15625 C 42.425781 -7.238281 41.070312 -5.53125 39.40625 -4.03125 C 37.738281 -2.53125 35.71875 -1.34375 33.34375 -0.46875 C 30.96875 0.40625 28.195312 0.84375 25.03125 0.84375 Z M 25.03125 0.84375 "/></g></g></g><g fill="#ffffff" fill-opacity="1"><g transform="translate(422.013084, 245.050666)"><g><path d="M 5.515625 -59.375 L 17.390625 -59.375 L 17.390625 -40.296875 L 17.8125 -40.296875 C 19.28125 -41.992188 20.921875 -43.335938 22.734375 -44.328125 C 24.546875 -45.316406 26.722656 -45.8125 29.265625 -45.8125 C 31.691406 -45.8125 33.921875 -45.398438 35.953125 -44.578125 C 37.992188 -43.753906 39.734375 -42.550781 41.171875 -40.96875 C 42.617188 -39.382812 43.753906 -37.472656 44.578125 -35.234375 C 45.398438 -33.003906 45.8125 -30.445312 45.8125 -27.5625 L 45.8125 0 L 33.9375 0 L 33.9375 -25.875 C 33.9375 -28.875 33.226562 -31.175781 31.8125 -32.78125 C 30.394531 -34.394531 28.414062 -35.203125 25.875 -35.203125 C 23.332031 -35.203125 21.28125 -34.335938 19.71875 -32.609375 C 18.164062 -30.890625 17.390625 -28.644531 17.390625 -25.875 L 17.390625 0 L 5.515625 0 Z M 5.515625 -59.375 "/></g></g></g><g fill="#ffffff" fill-opacity="1"><g transform="translate(210.5002, 355.846819)"><g><path d="M 104.671875 0 L 86.5625 0 L 53.046875 -29.5 L 19.53125 0 L 1.5625 0 L 44.0625 -37.4375 L 1.5625 -74.859375 L 19.53125 -74.859375 L 53.046875 -45.375 L 86.5625 -74.859375 L 104.671875 -74.859375 L 62.015625 -37.4375 Z M 104.671875 0 "/></g></g></g><g fill="#ffffff" fill-opacity="1"><g transform="translate(316.72897, 355.846819)"><g><path d="M 73.25 0 C 79.820312 0 85.429688 -2.320312 90.078125 -6.96875 C 94.722656 -11.613281 97.046875 -17.226562 97.046875 -23.8125 L 97.046875 -74.859375 L 85.15625 -74.859375 L 85.15625 -23.8125 C 85.15625 -20.5 83.988281 -17.6875 81.65625 -15.375 C 79.320312 -13.0625 76.519531 -11.90625 73.25 -11.90625 L 31.640625 -11.90625 C 28.328125 -11.90625 25.515625 -13.0625 23.203125 -15.375 C 20.890625 -17.6875 19.734375 -20.5 19.734375 -23.8125 L 19.734375 -74.859375 L 7.828125 -74.859375 L 7.828125 -23.8125 C 7.828125 -17.226562 10.148438 -11.613281 14.796875 -6.96875 C 19.441406 -2.320312 25.054688 0 31.640625 0 Z M 73.25 0 "/></g></g></g><g fill="#ffffff" fill-opacity="1"><g transform="translate(421.600517, 355.846819)"><g><path d="M 79.203125 0 L 25.6875 0 C 20.738281 0 16.523438 -1.738281 13.046875 -5.21875 C 9.566406 -8.695312 7.828125 -12.910156 7.828125 -17.859375 L 19.734375 -17.859375 C 19.734375 -16.222656 20.316406 -14.820312 21.484375 -13.65625 C 22.648438 -12.488281 24.050781 -11.90625 25.6875 -11.90625 L 79.203125 -11.90625 C 80.835938 -11.90625 82.238281 -12.488281 83.40625 -13.65625 C 84.570312 -14.820312 85.15625 -16.222656 85.15625 -17.859375 L 85.15625 -25.53125 C 85.15625 -27.195312 84.570312 -28.601562 83.40625 -29.75 C 82.238281 -30.90625 80.835938 -31.484375 79.203125 -31.484375 L 25.6875 -31.484375 C 20.738281 -31.484375 16.523438 -33.226562 13.046875 -36.71875 C 9.566406 -40.21875 7.828125 -44.425781 7.828125 -49.34375 L 7.828125 -57.0625 C 7.828125 -61.96875 9.566406 -66.160156 13.046875 -69.640625 C 16.523438 -73.117188 20.738281 -74.859375 25.6875 -74.859375 L 79.203125 -74.859375 C 84.109375 -74.859375 88.304688 -73.117188 91.796875 -69.640625 C 95.296875 -66.160156 97.046875 -61.96875 97.046875 -57.0625 L 85.15625 -57.0625 C 85.15625 -58.695312 84.570312 -60.085938 83.40625 -61.234375 C 82.238281 -62.390625 80.835938 -62.96875 79.203125 -62.96875 L 25.6875 -62.96875 C 24.050781 -62.96875 22.648438 -62.390625 21.484375 -61.234375 C 20.316406 -60.085938 19.734375 -58.695312 19.734375 -57.0625 L 19.734375 -49.34375 C 19.734375 -47.695312 20.316406 -46.289062 21.484375 -45.125 C 22.648438 -43.96875 24.050781 -43.390625 25.6875 -43.390625 L 79.203125 -43.390625 C 84.109375 -43.390625 88.304688 -41.644531 91.796875 -38.15625 C 95.296875 -34.675781 97.046875 -30.46875 97.046875 -25.53125 L 97.046875 -17.859375 C 97.046875 -12.910156 95.296875 -8.695312 91.796875 -5.21875 C 88.304688 -1.738281 84.109375 0 79.203125 0 Z M 79.203125 0 "/></g></g></g></svg>